<svg width="40" height="40" viewBox="0 0 40 40" fill="none" xmlns="http://www.w3.org/2000/svg">
<path d="M31.25 17.5C31.7708 17.5 32.2591 17.5977 32.7148 17.793C33.1706 17.9883 33.5677 18.2552 33.9062 18.5938C34.2448 18.9323 34.5117 19.3294 34.707 19.7852C34.9023 20.2409 35 20.7292 35 21.25V28.75C35 30.2995 34.707 31.7578 34.1211 33.125C33.5352 34.4922 32.7279 35.6836 31.6992 36.6992C30.6706 37.7148 29.4792 38.5156 28.125 39.1016C26.7708 39.6875 25.3125 39.987 23.75 40C21.875 40 20.1302 39.6419 18.5156 38.9258C16.901 38.2096 15.4297 37.194 14.1016 35.8789L4.88281 26.6602C4.51823 26.2956 4.23828 25.8724 4.04297 25.3906C3.84766 24.9089 3.75 24.4141 3.75 23.9062C3.75 23.3594 3.85417 22.8516 4.0625 22.3828C4.27083 21.9141 4.55078 21.4974 4.90234 21.1328C5.25391 20.7682 5.66406 20.4948 6.13281 20.3125C6.60156 20.1302 7.10938 20.026 7.65625 20C8.72396 20 9.64193 20.3841 10.4102 21.1523L12.5 23.2227V16.6602C11.7318 16.2956 11.0417 15.8398 10.4297 15.293C9.81771 14.7461 9.29688 14.1276 8.86719 13.4375C8.4375 12.7474 8.09896 12.0052 7.85156 11.2109C7.60417 10.4167 7.48698 9.59635 7.5 8.75C7.5 7.53906 7.72786 6.40625 8.18359 5.35156C8.63932 4.29688 9.26432 3.36589 10.0586 2.55859C10.8529 1.7513 11.7773 1.1263 12.832 0.683594C13.8867 0.240885 15.026 0.0130208 16.25 0C17.4609 0 18.5938 0.227865 19.6484 0.683594C20.7031 1.13932 21.6341 1.76432 22.4414 2.55859C23.2487 3.35286 23.8737 4.27734 24.3164 5.33203C24.7591 6.38672 24.987 7.52604 25 8.75C25 9.96094 24.7591 11.1198 24.2773 12.2266C23.7956 13.3333 23.112 14.3034 22.2266 15.1367C22.6823 15.2539 23.0924 15.4492 23.457 15.7227C23.8216 15.9961 24.1406 16.3346 24.4141 16.7383C25 16.4128 25.612 16.25 26.25 16.25C26.901 16.25 27.5065 16.3997 28.0664 16.6992C28.6263 16.9987 29.0755 17.4284 29.4141 17.9883C30 17.6628 30.612 17.5 31.25 17.5ZM10 8.75C10 9.72656 10.2214 10.6576 10.6641 11.543C11.1068 12.4284 11.7188 13.1641 12.5 13.75V8.75C12.5 8.22917 12.5977 7.74089 12.793 7.28516C12.9883 6.82943 13.2552 6.43229 13.5938 6.09375C13.9323 5.75521 14.3294 5.48828 14.7852 5.29297C15.2409 5.09766 15.7292 5 16.25 5C16.7708 5 17.2591 5.09766 17.7148 5.29297C18.1706 5.48828 18.5677 5.75521 18.9062 6.09375C19.2448 6.43229 19.5117 6.82943 19.707 7.28516C19.9023 7.74089 20 8.22917 20 8.75V13.75C20.7812 13.1641 21.3932 12.4284 21.8359 11.543C22.2786 10.6576 22.5 9.72656 22.5 8.75C22.5 7.89062 22.3372 7.08333 22.0117 6.32812C21.6862 5.57292 21.237 4.91536 20.6641 4.35547C20.0911 3.79557 19.4271 3.34635 18.6719 3.00781C17.9167 2.66927 17.1094 2.5 16.25 2.5C15.3906 2.5 14.5833 2.66276 13.8281 2.98828C13.0729 3.3138 12.4089 3.76302 11.8359 4.33594C11.263 4.90885 10.8138 5.57292 10.4883 6.32812C10.1628 7.08333 10 7.89062 10 8.75ZM32.5 21.25C32.5 20.9115 32.3763 20.6185 32.1289 20.3711C31.8815 20.1237 31.5885 20 31.25 20C30.8073 20 30.5013 20.1237 30.332 20.3711C30.1628 20.6185 30.0586 20.9245 30.0195 21.2891C29.9805 21.6536 29.974 22.0573 30 22.5C30.026 22.9427 30.026 23.3398 30 23.6914C29.974 24.043 29.8698 24.3555 29.6875 24.6289C29.5052 24.9023 29.1927 25.026 28.75 25C28.2682 25 27.9427 24.8503 27.7734 24.5508C27.6042 24.2513 27.5 23.8607 27.4609 23.3789C27.4219 22.8971 27.4349 22.3958 27.5 21.875C27.5651 21.3542 27.5781 20.8529 27.5391 20.3711C27.5 19.8893 27.4023 19.5052 27.2461 19.2188C27.0898 18.9323 26.7578 18.776 26.25 18.75C25.8073 18.75 25.5013 18.8737 25.332 19.1211C25.1628 19.3685 25.0586 19.6745 25.0195 20.0391C24.9805 20.4036 24.974 20.8073 25 21.25C25.026 21.6927 25.026 22.0898 25 22.4414C24.974 22.793 24.8698 23.1055 24.6875 23.3789C24.5052 23.6523 24.1927 23.776 23.75 23.75C23.2682 23.75 22.9427 23.6003 22.7734 23.3008C22.6042 23.0013 22.5 22.6107 22.4609 22.1289C22.4219 21.6471 22.4349 21.1458 22.5 20.625C22.5651 20.1042 22.5781 19.6029 22.5391 19.1211C22.5 18.6393 22.4023 18.2552 22.2461 17.9688C22.0898 17.6823 21.7578 17.526 21.25 17.5C20.8073 17.5 20.5013 17.6237 20.332 17.8711C20.1628 18.1185 20.0586 18.4245 20.0195 18.7891C19.9805 19.1536 19.974 19.5573 20 20C20.026 20.4427 20.026 20.8398 20 21.1914C19.974 21.543 19.8698 21.8555 19.6875 22.1289C19.5052 22.4023 19.1927 22.526 18.75 22.5C18.4115 22.5 18.1185 22.3763 17.8711 22.1289C17.6237 21.8815 17.5 21.5885 17.5 21.25V8.75C17.5 8.41146 17.3763 8.11849 17.1289 7.87109C16.8815 7.6237 16.5885 7.5 16.25 7.5C15.9115 7.5 15.6185 7.6237 15.3711 7.87109C15.1237 8.11849 15 8.41146 15 8.75V24.1211C15 24.4206 14.9479 24.694 14.8438 24.9414C14.7396 25.1888 14.5898 25.4167 14.3945 25.625C14.1992 25.8333 13.9714 25.9831 13.7109 26.0742C13.4505 26.1654 13.1771 26.224 12.8906 26.25C12.6042 26.25 12.3307 26.1979 12.0703 26.0938C11.8099 25.9896 11.569 25.8333 11.3477 25.625L8.63281 22.9102C8.35938 22.6367 8.03385 22.5 7.65625 22.5C7.27865 22.5 6.95312 22.6367 6.67969 22.9102C6.40625 23.1836 6.26302 23.5156 6.25 23.9062C6.25 24.2839 6.38672 24.6094 6.66016 24.8828L15.8789 34.1211C16.9727 35.2148 18.1706 36.0482 19.4727 36.6211C20.7747 37.194 22.2005 37.487 23.75 37.5C24.9609 37.5 26.0938 37.2721 27.1484 36.8164C28.2031 36.3607 29.1276 35.7357 29.9219 34.9414C30.7161 34.1471 31.3411 33.2227 31.7969 32.168C32.2526 31.1133 32.487 29.974 32.5 28.75V21.25Z" fill="white"/>
</svg>
